Title:
Ashes and Blood Aka Cendres et Sang

Country:
France/2009

Language:
French

Subtitle:
English (srt)
Portuguese PT (srt)

Director:
Fanny Ardant

Writers:
Ismail Kadare (novel), Fanny Ardant (screenplay)

Stars:
Ronit Elkabetz, Abraham Belaga, Marc Ruchmann 

Synopsis:
Exiled from her country since her husband's murder ten years earlier, Judith lives in Marseille with her three children. After having refused to see her family for years, Judith, in spite of her fears and secrets, allows herself to be influenced by her children's wishes and accepts an invitation to their cousin's wedding. They set off to spend a summer in the old country, discovering their roots and their past. But Judith's return revives old hatreds between rival clans. The spiral of violence is inexorably set in motion, blood will tell... 

Trivia:
Official Selection Cannes Film Festival 2009

Imdb: 
http://www.imdb.com/title/tt1236182

Trailer: 
http://www.cine.gr/film.asp?id=714055&page=8

Media Info:

General
Complete name                            : Ashes.and.Blood.[Cendres.et.Sang].2009.DVDRip.XviD.HORiZON-ArtSubs
Format                                   : AVI
Format/Info                              : Audio Video Interleave
Format profile                           : OpenDML
File size                                : 1.42 GiB
Duration                                 : 1h 33mn
Overall bit rate                         : 2 161 Kbps
Writing application                      : Lavf52.94.0

Video
ID                                       : 0
Format                                   : MPEG-4 Visual
Format profile                           : Simple@L3
Format settings, BVOP                    : No
Format settings, QPel                    : No
Format settings, GMC                     : No warppoints
Format settings, Matrix                  : Default (H.263)
Codec ID                                 : XVID
Codec ID/Hint                            : XviD
Duration                                 : 1h 33mn
Bit rate                                 : 1 925 Kbps
Width                                    : 1 024 pixels
Height                                   : 576 pixels
Display aspect ratio                     : 16:9
Frame rate                               : 25.000 fps
Color space                              : YUV
Chroma subsampling                       : 4:2:0
Bit depth                                : 8 bits
Scan type                                : Progressive
Compression mode                         : Lossy
Bits/(Pixel*Frame)                       : 0.131
Stream size                              : 1.26 GiB (89%)
Writing library                          : XviD 1.2.1 (UTC 2008-12-04)

Audio
ID                                       : 1
Format                                   : AC-3
Format/Info                              : Audio Coding 3
Mode extension                           : CM (complete main)
Format settings, Endianness              : Big
Codec ID                                 : 2000
Duration                                 : 1h 33mn
Bit rate mode                            : Constant
Bit rate                                 : 224 Kbps
Channel(s)                               : 2 channels
Channel positions                        : Front: L R
Sampling rate                            : 48.0 KHz
Bit depth                                : 16 bits
Compression mode                         : Lossy
Stream size                              : 150 MiB (10%)
Alignment                                : Aligned on interleaves
Interleave, duration                     : 32 ms (0.80 video frame)

